<?xml version="1.0" standalone="no"?><!DOCTYPE svg PUBLIC "-//W3C//DTD SVG 1.1//EN" "http://www.w3.org/Graphics/SVG/1.1/DTD/svg11.dtd"><svg t="1624381633689" class="icon" viewBox="0 0 1024 1024" version="1.1" xmlns="http://www.w3.org/2000/svg" p-id="11958" xmlns:xlink="http://www.w3.org/1999/xlink" width="200" height="200"><defs><style type="text/css"></style></defs><path d="M303.709091 965.515636l352.279273-332.101818-260.840728-282.344727L34.373818 691.176727l257.326546 278.109091a17.710545 17.710545 0 0 1 10.938181-3.793454h1.070546v0.023272z m82.106182 0h541.463272a18.385455 18.385455 0 0 1 18.08291 18.618182v21.248a18.874182 18.874182 0 0 1-5.306182 13.172364 17.873455 17.873455 0 0 1-12.8 5.445818h-624.64a18.269091 18.269091 0 0 1-17.803637-15.336727 107.170909 107.170909 0 0 1-66.56-34.048l-188.369454-203.892364a113.501091 113.501091 0 0 1-29.812364-80.826182 113.058909 113.058909 0 0 1 35.211637-78.498909L653.637818 29.323636a106.519273 106.519273 0 0 1 152.133818 5.469091l188.346182 203.869091a113.501091 113.501091 0 0 1 29.812364 80.849455 113.058909 113.058909 0 0 1-35.234909 78.498909L385.792 965.492364l0.023273 0.023272z" p-id="11959"></path></svg>