<?xml version="1.0" standalone="no"?><!DOCTYPE svg PUBLIC "-//W3C//DTD SVG 1.1//EN" "http://www.w3.org/Graphics/SVG/1.1/DTD/svg11.dtd"><svg t="1612096241889" class="icon" viewBox="0 0 1024 1024" version="1.1" xmlns="http://www.w3.org/2000/svg" p-id="4033" xmlns:xlink="http://www.w3.org/1999/xlink" width="200" height="200"><defs><style type="text/css"></style></defs><path d="M88 214.4c0 46.4 40 83.2 91.2 83.2 48 0 91.2-36.8 91.2-83.2 0-46.4-40-83.2-91.2-83.2s-91.2 36.8-91.2 83.2zM44.8 420.8l57.6-89.6s80 62.4 104 83.2c22.4 20.8 65.6 57.6 65.6 112s-17.6 108.8-32 140.8c-14.4 32-104 217.6-104 217.6L1.6 800s129.6-116.8 177.6-192c17.6-22.4 35.2-83.2-20.8-112-48-35.2-113.6-75.2-113.6-75.2z m174.4-54.4s75.2-48 145.6-246.4c20.8 8 123.2 35.2 123.2 35.2l-35.2 62.4s155.2-48 292.8-48c0 0 75.2-3.2 129.6 17.6 54.4 20.8 115.2 57.6 129.6 116.8 14.4 62.4 32 268.8 0 459.2 0 0-6.4 43.2-48 83.2-40 40-91.2 57.6-174.4 57.6s-129.6-17.6-129.6-17.6l17.6-75.2s54.4 20.8 94.4 20.8c43.2 0 76.8-17.6 97.6-40 0 0 17.6-25.6 17.6-46.4 0-20.8 3.2-419.2-3.2-433.6-3.2-14.4-8-65.6-75.2-76.8-65.6-11.2-115.2-3.2-129.6 0-17.6 3.2-112 28.8-160 48 20.8 6.4 54.4 17.6 54.4 17.6s-17.6 35.2-48 68.8h318.4V432H657.6v83.2H832v62.4H657.6v131.2s28.8 0 72-35.2c-3.2-22.4-3.2-25.6-11.2-60.8 28.8-6.4 83.2-25.6 83.2-25.6l68.8 166.4-104 40-20.8-68.8s-32 35.2-105.6 57.6c-104 32-166.4 28.8-185.6 28.8 0 0-51.2 3.2-80-11.2-32-14.4-75.2-46.4-75.2-131.2 0-32 8-54.4 8-54.4h126.4s-6.4 46.4-6.4 57.6c0 11.2-8 60.8 83.2 60.8v-155.2H331.2v-62.4h177.6v-80h-46.4s-51.2 48-80 75.2L331.2 464s60.8-62.4 104-152c-24 8-67.2 28.8-67.2 28.8s-28.8 36.8-65.6 76.8c-20.8-19.2-83.2-51.2-83.2-51.2z" fill="#888888" p-id="4034"></path></svg>