<?xml version="1.0" standalone="no"?><!DOCTYPE svg PUBLIC "-//W3C//DTD SVG 1.1//EN" "http://www.w3.org/Graphics/SVG/1.1/DTD/svg11.dtd"><svg t="1612095555561" class="icon" viewBox="0 0 1193 1024" version="1.1" xmlns="http://www.w3.org/2000/svg" p-id="1125" xmlns:xlink="http://www.w3.org/1999/xlink" width="233.0078125" height="200"><defs><style type="text/css"></style></defs><path d="M806.052074 309.710659c13.950931 0 27.901861 0.930062 40.92273 2.790186C809.772322 133.928934 629.340286 0.930062 421.936451 0.930062 190.351003 0.930062 1.548409 167.411167 1.548409 378.53525c0 120.908065 62.314157 221.354765 167.411167 299.479977l-41.852791 132.998872L274.986649 734.749011c52.083474 11.160744 94.866328 22.321489 146.949802 22.321489 13.020869 0 26.971799 0 39.062606-1.860124a353.423575 353.423575 0 0 1 344.122955-444.569655zM580.046998 189.732656c31.622109 0 53.013536 22.321489 53.013536 55.803723 0 32.552171-21.391427 55.803722-53.013536 55.803722-31.622109 0-63.244219-23.251551-63.244219-55.803722 0-33.482233 31.622109-55.803722 63.244219-55.803723z m-294.829667 111.607445c-31.622109 0-63.244219-23.251551-63.244218-55.803722 0-33.482233 31.622109-55.803722 63.244218-55.803723s53.013536 22.321489 53.013537 55.803723c0 32.552171-21.391427 55.803722-53.013537 55.803722z" p-id="1126"></path><path d="M1191.097758 655.693738c0-176.711788-169.271291-321.801466-358.073885-321.801466C633.060534 333.892272 474.949988 478.051888 474.949988 655.693738s158.110547 321.801466 358.073885 321.801466c41.852792 0 83.705584-11.160744 126.488437-22.321489l115.327693 66.964467-31.622109-111.607445c83.705584-65.104343 146.949802-154.390299 146.949802-254.836999z m-474.33164-55.803722c-20.461365 0-41.852792-21.391427-41.852792-43.712916 0-22.321489 21.391427-44.642978 41.852792-44.642978 31.622109 0 53.013536 22.321489 53.013536 44.642978s-21.391427 44.642978-53.013536 44.642978z m232.51551 0c-21.391427 0-42.782854-21.391427-42.782854-43.712916 0-22.321489 21.391427-44.642978 41.852792-44.642978 31.622109 0 53.013536 22.321489 53.013536 44.642978s-21.391427 44.642978-53.013536 44.642978z" p-id="1127"></path></svg>